<svg id="Layer_1" data-name="Layer 1" xmlns="http://www.w3.org/2000/svg" xmlns:xlink="http://www.w3.org/1999/xlink" viewBox="0 0 50 22"><defs><style>.cls-1{fill:none;}.cls-2{fill:#243261;}.cls-3{clip-path:url(#clip-path);}.cls-4{fill:#fff;}.cls-5{clip-path:url(#clip-path-2);}</style><clipPath id="clip-path"><rect class="cls-1" x="18.03" y="-5.39" width="32.78" height="32.78"/></clipPath><clipPath id="clip-path-2"><rect class="cls-1" x="-1.81" y="-5.39" width="23.62" height="32.78"/></clipPath></defs><title>icon cham bi</title><rect class="cls-2" x="18.03" y="-5.39" width="32.78" height="32.78"/><g class="cls-3"><circle class="cls-4" cx="24.85" cy="19.22" r="2.08"/><circle class="cls-4" cx="34.42" cy="19.22" r="2.08"/><circle class="cls-4" cx="44" cy="19.22" r="2.08"/><circle class="cls-4" cx="20.25" cy="14.12" r="2.08"/><circle class="cls-4" cx="29.82" cy="14.12" r="2.08"/><circle class="cls-4" cx="39.4" cy="14.12" r="2.08"/><circle class="cls-4" cx="24.85" cy="9.14" r="2.08"/><circle class="cls-4" cx="34.42" cy="9.14" r="2.08"/><circle class="cls-4" cx="44" cy="9.14" r="2.08"/><circle class="cls-4" cx="48.98" cy="14.12" r="2.08"/><circle class="cls-4" cx="20.25" cy="4.04" r="2.08"/><circle class="cls-4" cx="29.82" cy="4.04" r="2.08"/><circle class="cls-4" cx="39.4" cy="4.04" r="2.08"/><circle class="cls-4" cx="24.85" cy="-0.94" r="2.08"/><circle class="cls-4" cx="34.42" cy="-0.94" r="2.08"/><circle class="cls-4" cx="44" cy="-0.94" r="2.08"/><circle class="cls-4" cx="48.98" cy="4.04" r="2.08"/></g><rect class="cls-2" x="-10.37" y="-5.39" width="32.78" height="32.78"/><g class="cls-5"><circle class="cls-4" cx="5.01" cy="19.22" r="2.08"/><circle class="cls-4" cx="14.59" cy="19.22" r="2.08"/><circle class="cls-4" cx="24.16" cy="19.22" r="2.08"/><circle class="cls-4" cx="0.41" cy="14.12" r="2.08"/><circle class="cls-4" cx="9.99" cy="14.12" r="2.08"/><circle class="cls-4" cx="19.56" cy="14.12" r="2.08"/><circle class="cls-4" cx="5.01" cy="9.14" r="2.08"/><circle class="cls-4" cx="14.59" cy="9.14" r="2.08"/><circle class="cls-4" cx="24.16" cy="9.14" r="2.08"/><circle class="cls-4" cx="29.14" cy="14.12" r="2.08"/><circle class="cls-4" cx="0.41" cy="4.04" r="2.08"/><circle class="cls-4" cx="9.99" cy="4.04" r="2.08"/><circle class="cls-4" cx="19.56" cy="4.04" r="2.08"/><circle class="cls-4" cx="5.01" cy="-0.94" r="2.08"/><circle class="cls-4" cx="14.59" cy="-0.94" r="2.08"/><circle class="cls-4" cx="24.16" cy="-0.94" r="2.08"/><circle class="cls-4" cx="29.14" cy="4.04" r="2.08"/></g></svg>