<svg id="Layer_1" data-name="Layer 1" xmlns="http://www.w3.org/2000/svg" xmlns:xlink="http://www.w3.org/1999/xlink" viewBox="0 0 50 25"><defs><style>.cls-1{fill:none;}.cls-2{clip-path:url(#clip-path);}.cls-3{fill:#7b7c7f;opacity:0.37;}</style><clipPath id="clip-path"><rect class="cls-1" y="-0.14" width="50.33" height="25.14"/></clipPath></defs><title>icon caro</title><g class="cls-2"><rect class="cls-3" x="12.72" y="10.95" width="25.14" height="2.99" transform="translate(37.74 -12.84) rotate(90)"/><rect class="cls-3" x="18.91" y="10.95" width="25.14" height="2.99" transform="translate(43.93 -19.03) rotate(90)"/><rect class="cls-3" x="25.1" y="10.95" width="25.14" height="2.99" transform="translate(50.12 -25.22) rotate(90)"/><rect class="cls-3" x="31.28" y="10.95" width="25.14" height="2.99" transform="translate(56.31 -31.41) rotate(90)"/><rect class="cls-3" x="37.47" y="10.95" width="25.14" height="2.99" transform="translate(62.49 -37.59) rotate(90)"/><rect class="cls-3" x="6.54" y="10.95" width="25.14" height="2.99" transform="translate(31.56 -6.66) rotate(90)"/><rect class="cls-3" x="0.35" y="10.95" width="25.14" height="2.99" transform="translate(25.37 -0.47) rotate(90)"/><rect class="cls-3" x="-5.91" y="10.95" width="25.14" height="2.99" transform="translate(19.11 5.79) rotate(90)"/><rect class="cls-3" x="-12.17" y="10.95" width="25.14" height="2.99" transform="translate(12.85 12.05) rotate(90)"/><rect class="cls-3" y="1.67" width="50" height="2.99"/><rect class="cls-3" y="7.86" width="50" height="2.99"/><rect class="cls-3" y="14.05" width="50" height="2.99"/><rect class="cls-3" y="20.23" width="50" height="2.99"/></g><rect class="cls-1" width="50" height="25"/></svg>